<svg width="14" height="12" viewBox="0 0 14 12" fill="none" xmlns="http://www.w3.org/2000/svg">
<path d="M2.49998 0.666504C1.30933 0.666504 0.333313 1.64252 0.333313 2.83317V9.1665C0.333313 10.3571 1.30933 11.3332 2.49998 11.3332H11.5C12.6906 11.3332 13.6666 10.3571 13.6666 9.1665V2.83317C13.6666 1.64252 12.6906 0.666504 11.5 0.666504H2.49998ZM2.49998 1.6665H11.5C12.15 1.6665 12.6666 2.18315 12.6666 2.83317V3.20166L6.99998 6.26481L1.33331 3.20166V2.83317C1.33331 2.18315 1.84996 1.6665 2.49998 1.6665ZM1.33331 4.33838L6.76235 7.27327C6.83535 7.3127 6.91701 7.33334 6.99998 7.33334C7.08295 7.33334 7.16461 7.3127 7.23761 7.27327L12.6666 4.33838V9.1665C12.6666 9.81652 12.15 10.3332 11.5 10.3332H2.49998C1.84996 10.3332 1.33331 9.81652 1.33331 9.1665V4.33838Z" fill="#E5E5E5"/>
</svg>
