<svg width="20" height="20" viewBox="0 0 20 20" fill="none" xmlns="http://www.w3.org/2000/svg">
<mask id="path-1-inside-1_3479_40799" fill="white">
<path fill-rule="evenodd" clip-rule="evenodd" d="M7.5 10V1.25H8.75V8.89625L10.9288 7.5875C11.0258 7.52934 11.1368 7.49862 11.25 7.49862C11.3632 7.49862 11.4742 7.52934 11.5713 7.5875L13.75 8.89625V1.25H15V10C15 10.1106 14.9707 10.2192 14.915 10.3147C14.8594 10.4103 14.7794 10.4894 14.6832 10.5439C14.5869 10.5984 14.478 10.6264 14.3674 10.6251C14.2568 10.6237 14.1486 10.5931 14.0538 10.5363L11.25 8.85375L8.44625 10.5375C8.3513 10.5944 8.24295 10.6251 8.13227 10.6263C8.02159 10.6276 7.91255 10.5995 7.81631 10.5448C7.72006 10.4902 7.64006 10.4109 7.58449 10.3152C7.52891 10.2195 7.49976 10.1107 7.5 10Z"/>
</mask>
<path fill-rule="evenodd" clip-rule="evenodd" d="M7.5 10V1.25H8.75V8.89625L10.9288 7.5875C11.0258 7.52934 11.1368 7.49862 11.25 7.49862C11.3632 7.49862 11.4742 7.52934 11.5713 7.5875L13.75 8.89625V1.25H15V10C15 10.1106 14.9707 10.2192 14.915 10.3147C14.8594 10.4103 14.7794 10.4894 14.6832 10.5439C14.5869 10.5984 14.478 10.6264 14.3674 10.6251C14.2568 10.6237 14.1486 10.5931 14.0538 10.5363L11.25 8.85375L8.44625 10.5375C8.3513 10.5944 8.24295 10.6251 8.13227 10.6263C8.02159 10.6276 7.91255 10.5995 7.81631 10.5448C7.72006 10.4902 7.64006 10.4109 7.58449 10.3152C7.52891 10.2195 7.49976 10.1107 7.5 10Z" fill="#343A40"/>
<path d="M7.5 1.25V-0.25H6V1.25H7.5ZM8.75 1.25H10.25V-0.25H8.75V1.25ZM8.75 8.89625H7.25V11.5471L9.5224 10.1821L8.75 8.89625ZM10.9288 7.5875L10.1578 6.30081L10.1564 6.30165L10.9288 7.5875ZM11.5713 7.5875L12.3436 6.30165L12.3423 6.30082L11.5713 7.5875ZM13.75 8.89625L12.9776 10.1821L15.25 11.5471V8.89625H13.75ZM13.75 1.25V-0.25H12.25V1.25H13.75ZM15 1.25H16.5V-0.25H15V1.25ZM15 10H13.5V10.0003L15 10ZM14.0538 10.5363L13.2819 11.8224L13.2828 11.8229L14.0538 10.5363ZM11.25 8.85375L12.0218 7.56756L11.2497 7.10422L10.4778 7.56782L11.25 8.85375ZM8.44625 10.5375L9.21726 11.8242L9.2185 11.8234L8.44625 10.5375ZM9 10V1.25H6V10H9ZM7.5 2.75H8.75V-0.25H7.5V2.75ZM7.25 1.25V8.89625H10.25V1.25H7.25ZM9.5224 10.1821L11.7011 8.87335L10.1564 6.30165L7.97761 7.6104L9.5224 10.1821ZM11.6998 8.87419C11.5639 8.95561 11.4084 8.99862 11.25 8.99862V5.99862C10.8653 5.99862 10.4878 6.10307 10.1578 6.30082L11.6998 8.87419ZM11.25 8.99862C11.0916 8.99862 10.9361 8.95561 10.8003 8.87419L12.3423 6.30082C12.0122 6.10307 11.6347 5.99862 11.25 5.99862V8.99862ZM10.7989 8.87335L12.9776 10.1821L14.5224 7.6104L12.3436 6.30165L10.7989 8.87335ZM15.25 8.89625V1.25H12.25V8.89625H15.25ZM13.75 2.75H15V-0.25H13.75V2.75ZM13.5 1.25V10H16.5V1.25H13.5ZM13.5 10.0003C13.5 9.8455 13.541 9.69345 13.6189 9.55968L16.2111 11.0698C16.4004 10.7449 16.5001 10.3757 16.5 9.99969L13.5 10.0003ZM13.6189 9.55968C13.6969 9.42591 13.8089 9.31521 13.9436 9.23888L15.4227 11.8489C15.7498 11.6635 16.0219 11.3947 16.2111 11.0698L13.6189 9.55968ZM13.9436 9.23888C14.0783 9.16254 14.2308 9.12332 14.3856 9.1252L14.3492 12.125C14.7252 12.1295 15.0956 12.0343 15.4227 11.8489L13.9436 9.23888ZM14.3856 9.1252C14.5404 9.12707 14.6919 9.16999 14.8248 9.24957L13.2828 11.8229C13.6053 12.0162 13.9733 12.1204 14.3492 12.125L14.3856 9.1252ZM14.8256 9.25006L12.0218 7.56756L10.4782 10.1399L13.2819 11.8224L14.8256 9.25006ZM10.4778 7.56782L7.674 9.25157L9.2185 11.8234L12.0223 10.1397L10.4778 7.56782ZM7.67525 9.25082C7.80818 9.17116 7.95987 9.12824 8.11482 9.12644L8.14972 12.1262C8.52603 12.1219 8.89443 12.0176 9.21726 11.8242L7.67525 9.25082ZM8.11482 9.12644C8.26978 9.12464 8.42243 9.16402 8.55717 9.24056L7.07544 11.8491C7.40267 12.035 7.77339 12.1306 8.14972 12.1262L8.11482 9.12644ZM8.55717 9.24056C8.69191 9.31709 8.80391 9.42804 8.88172 9.56206L6.28725 11.0683C6.47621 11.3938 6.74821 11.6632 7.07544 11.8491L8.55717 9.24056ZM8.88172 9.56206C8.95952 9.69608 9.00034 9.84836 9 10.0033L6.00001 9.99668C5.99917 10.373 6.0983 10.7428 6.28725 11.0683L8.88172 9.56206Z" fill="#343A40" mask="url(#path-1-inside-1_3479_40799)"/>
<mask id="path-3-inside-2_3479_40799" fill="white">
<path d="M3.75 0H16.25C16.913 0 17.5489 0.263392 18.0178 0.732233C18.4866 1.20107 18.75 1.83696 18.75 2.5V17.5C18.75 18.163 18.4866 18.7989 18.0178 19.2678C17.5489 19.7366 16.913 20 16.25 20H3.75C3.08696 20 2.45107 19.7366 1.98223 19.2678C1.51339 18.7989 1.25 18.163 1.25 17.5V16.25H2.5V17.5C2.5 17.8315 2.6317 18.1495 2.86612 18.3839C3.10054 18.6183 3.41848 18.75 3.75 18.75H16.25C16.5815 18.75 16.8995 18.6183 17.1339 18.3839C17.3683 18.1495 17.5 17.8315 17.5 17.5V2.5C17.5 2.16848 17.3683 1.85054 17.1339 1.61612C16.8995 1.3817 16.5815 1.25 16.25 1.25H3.75C3.41848 1.25 3.10054 1.3817 2.86612 1.61612C2.6317 1.85054 2.5 2.16848 2.5 2.5V3.75H1.25V2.5C1.25 1.83696 1.51339 1.20107 1.98223 0.732233C2.45107 0.263392 3.08696 0 3.75 0V0Z"/>
</mask>
<path d="M3.75 0H16.25C16.913 0 17.5489 0.263392 18.0178 0.732233C18.4866 1.20107 18.75 1.83696 18.75 2.5V17.5C18.75 18.163 18.4866 18.7989 18.0178 19.2678C17.5489 19.7366 16.913 20 16.25 20H3.75C3.08696 20 2.45107 19.7366 1.98223 19.2678C1.51339 18.7989 1.25 18.163 1.25 17.5V16.25H2.5V17.5C2.5 17.8315 2.6317 18.1495 2.86612 18.3839C3.10054 18.6183 3.41848 18.75 3.75 18.75H16.25C16.5815 18.75 16.8995 18.6183 17.1339 18.3839C17.3683 18.1495 17.5 17.8315 17.5 17.5V2.5C17.5 2.16848 17.3683 1.85054 17.1339 1.61612C16.8995 1.3817 16.5815 1.25 16.25 1.25H3.75C3.41848 1.25 3.10054 1.3817 2.86612 1.61612C2.6317 1.85054 2.5 2.16848 2.5 2.5V3.75H1.25V2.5C1.25 1.83696 1.51339 1.20107 1.98223 0.732233C2.45107 0.263392 3.08696 0 3.75 0V0Z" fill="#343A40"/>
<path d="M3.75 0V-1.5H2.25V0H3.75ZM1.25 17.5H-0.25H1.25ZM1.25 16.25V14.75H-0.25V16.25H1.25ZM2.5 16.25H4V14.75H2.5V16.25ZM2.5 17.5H1H2.5ZM3.75 1.25V-0.25V1.25ZM2.5 2.5H1H2.5ZM2.5 3.75V5.25H4V3.75H2.5ZM1.25 3.75H-0.25V5.25H1.25V3.75ZM3.75 0V1.5H5.25V0H3.75ZM3.75 1.5H16.25V-1.5H3.75V1.5ZM16.25 1.5C16.5152 1.5 16.7696 1.60536 16.9571 1.79289L19.0784 -0.328427C18.3283 -1.07857 17.3109 -1.5 16.25 -1.5V1.5ZM16.9571 1.79289C17.1446 1.98043 17.25 2.23478 17.25 2.5H20.25C20.25 1.43913 19.8286 0.421718 19.0784 -0.328427L16.9571 1.79289ZM17.25 2.5V17.5H20.25V2.5H17.25ZM17.25 17.5C17.25 17.7652 17.1446 18.0196 16.9571 18.2071L19.0784 20.3284C19.8286 19.5783 20.25 18.5609 20.25 17.5H17.25ZM16.9571 18.2071C16.7696 18.3946 16.5152 18.5 16.25 18.5V21.5C17.3109 21.5 18.3283 21.0786 19.0784 20.3284L16.9571 18.2071ZM16.25 18.5H3.75V21.5H16.25V18.5ZM3.75 18.5C3.48478 18.5 3.23043 18.3946 3.04289 18.2071L0.921573 20.3284C1.67172 21.0786 2.68913 21.5 3.75 21.5V18.5ZM3.04289 18.2071C2.85536 18.0196 2.75 17.7652 2.75 17.5H-0.25C-0.25 18.5609 0.171428 19.5783 0.921573 20.3284L3.04289 18.2071ZM2.75 17.5V16.25H-0.25V17.5H2.75ZM1.25 17.75H2.5V14.75H1.25V17.75ZM1 16.25V17.5H4V16.25H1ZM1 17.5C1 18.2293 1.28973 18.9288 1.80546 19.4445L3.92678 17.3232C3.97366 17.3701 4 17.4337 4 17.5H1ZM1.80546 19.4445C2.32118 19.9603 3.02065 20.25 3.75 20.25V17.25C3.8163 17.25 3.87989 17.2763 3.92678 17.3232L1.80546 19.4445ZM3.75 20.25H16.25V17.25H3.75V20.25ZM16.25 20.25C16.9793 20.25 17.6788 19.9603 18.1945 19.4445L16.0732 17.3232C16.1201 17.2763 16.1837 17.25 16.25 17.25V20.25ZM18.1945 19.4445C18.7103 18.9288 19 18.2293 19 17.5H16C16 17.4337 16.0263 17.3701 16.0732 17.3232L18.1945 19.4445ZM19 17.5V2.5H16V17.5H19ZM19 2.5C19 1.77065 18.7103 1.07118 18.1945 0.555456L16.0732 2.67678C16.0263 2.62989 16 2.5663 16 2.5H19ZM18.1945 0.555456C17.6788 0.0397314 16.9793 -0.25 16.25 -0.25V2.75C16.1837 2.75 16.1201 2.72366 16.0732 2.67678L18.1945 0.555456ZM16.25 -0.25H3.75V2.75H16.25V-0.25ZM3.75 -0.25C3.02065 -0.25 2.32118 0.0397311 1.80546 0.555456L3.92678 2.67678C3.87989 2.72366 3.8163 2.75 3.75 2.75V-0.25ZM1.80546 0.555456C1.28973 1.07118 1 1.77065 1 2.5H4C4 2.5663 3.97366 2.62989 3.92678 2.67678L1.80546 0.555456ZM1 2.5V3.75H4V2.5H1ZM2.5 2.25H1.25V5.25H2.5V2.25ZM2.75 3.75V2.5H-0.25V3.75H2.75ZM2.75 2.5C2.75 2.23478 2.85536 1.98043 3.04289 1.79289L0.921573 -0.328427C0.171427 0.421718 -0.25 1.43913 -0.25 2.5H2.75ZM3.04289 1.79289C3.23043 1.60536 3.48478 1.5 3.75 1.5V-1.5C2.68913 -1.5 1.67172 -1.07857 0.921573 -0.328427L3.04289 1.79289ZM5.25 0V0H2.25V0H5.25Z" fill="#343A40" mask="url(#path-3-inside-2_3479_40799)"/>
<mask id="path-5-inside-3_3479_40799" fill="white">
<path d="M1.25 6.25V5.625C1.25 5.45924 1.31585 5.30027 1.43306 5.18306C1.55027 5.06585 1.70924 5 1.875 5C2.04076 5 2.19973 5.06585 2.31694 5.18306C2.43415 5.30027 2.5 5.45924 2.5 5.625V6.25H3.125C3.29076 6.25 3.44973 6.31585 3.56694 6.43306C3.68415 6.55027 3.75 6.70924 3.75 6.875C3.75 7.04076 3.68415 7.19973 3.56694 7.31694C3.44973 7.43415 3.29076 7.5 3.125 7.5H0.625C0.45924 7.5 0.300269 7.43415 0.183058 7.31694C0.065848 7.19973 0 7.04076 0 6.875C0 6.70924 0.065848 6.55027 0.183058 6.43306C0.300269 6.31585 0.45924 6.25 0.625 6.25H1.25ZM1.25 10V9.375C1.25 9.20924 1.31585 9.05027 1.43306 8.93306C1.55027 8.81585 1.70924 8.75 1.875 8.75C2.04076 8.75 2.19973 8.81585 2.31694 8.93306C2.43415 9.05027 2.5 9.20924 2.5 9.375V10H3.125C3.29076 10 3.44973 10.0658 3.56694 10.1831C3.68415 10.3003 3.75 10.4592 3.75 10.625C3.75 10.7908 3.68415 10.9497 3.56694 11.0669C3.44973 11.1842 3.29076 11.25 3.125 11.25H0.625C0.45924 11.25 0.300269 11.1842 0.183058 11.0669C0.065848 10.9497 0 10.7908 0 10.625C0 10.4592 0.065848 10.3003 0.183058 10.1831C0.300269 10.0658 0.45924 10 0.625 10H1.25ZM1.25 13.75V13.125C1.25 12.9592 1.31585 12.8003 1.43306 12.6831C1.55027 12.5658 1.70924 12.5 1.875 12.5C2.04076 12.5 2.19973 12.5658 2.31694 12.6831C2.43415 12.8003 2.5 12.9592 2.5 13.125V13.75H3.125C3.29076 13.75 3.44973 13.8158 3.56694 13.9331C3.68415 14.0503 3.75 14.2092 3.75 14.375C3.75 14.5408 3.68415 14.6997 3.56694 14.8169C3.44973 14.9342 3.29076 15 3.125 15H0.625C0.45924 15 0.300269 14.9342 0.183058 14.8169C0.065848 14.6997 0 14.5408 0 14.375C0 14.2092 0.065848 14.0503 0.183058 13.9331C0.300269 13.8158 0.45924 13.75 0.625 13.75H1.25Z"/>
</mask>
<path d="M1.25 6.25V5.625C1.25 5.45924 1.31585 5.30027 1.43306 5.18306C1.55027 5.06585 1.70924 5 1.875 5C2.04076 5 2.19973 5.06585 2.31694 5.18306C2.43415 5.30027 2.5 5.45924 2.5 5.625V6.25H3.125C3.29076 6.25 3.44973 6.31585 3.56694 6.43306C3.68415 6.55027 3.75 6.70924 3.75 6.875C3.75 7.04076 3.68415 7.19973 3.56694 7.31694C3.44973 7.43415 3.29076 7.5 3.125 7.5H0.625C0.45924 7.5 0.300269 7.43415 0.183058 7.31694C0.065848 7.19973 0 7.04076 0 6.875C0 6.70924 0.065848 6.55027 0.183058 6.43306C0.300269 6.31585 0.45924 6.25 0.625 6.25H1.25ZM1.25 10V9.375C1.25 9.20924 1.31585 9.05027 1.43306 8.93306C1.55027 8.81585 1.70924 8.75 1.875 8.75C2.04076 8.75 2.19973 8.81585 2.31694 8.93306C2.43415 9.05027 2.5 9.20924 2.5 9.375V10H3.125C3.29076 10 3.44973 10.0658 3.56694 10.1831C3.68415 10.3003 3.75 10.4592 3.75 10.625C3.75 10.7908 3.68415 10.9497 3.56694 11.0669C3.44973 11.1842 3.29076 11.25 3.125 11.25H0.625C0.45924 11.25 0.300269 11.1842 0.183058 11.0669C0.065848 10.9497 0 10.7908 0 10.625C0 10.4592 0.065848 10.3003 0.183058 10.1831C0.300269 10.0658 0.45924 10 0.625 10H1.25ZM1.25 13.75V13.125C1.25 12.9592 1.31585 12.8003 1.43306 12.6831C1.55027 12.5658 1.70924 12.5 1.875 12.5C2.04076 12.5 2.19973 12.5658 2.31694 12.6831C2.43415 12.8003 2.5 12.9592 2.5 13.125V13.75H3.125C3.29076 13.75 3.44973 13.8158 3.56694 13.9331C3.68415 14.0503 3.75 14.2092 3.75 14.375C3.75 14.5408 3.68415 14.6997 3.56694 14.8169C3.44973 14.9342 3.29076 15 3.125 15H0.625C0.45924 15 0.300269 14.9342 0.183058 14.8169C0.065848 14.6997 0 14.5408 0 14.375C0 14.2092 0.065848 14.0503 0.183058 13.9331C0.300269 13.8158 0.45924 13.75 0.625 13.75H1.25Z" fill="#343A40"/>
<path d="M1.25 6.25V7.75H2.75V6.25H1.25ZM1.875 5V6.5V5ZM2.5 5.625H4H2.5ZM2.5 6.25H1V7.75H2.5V6.25ZM0 6.875H-1.5H0ZM1.25 10V11.5H2.75V10H1.25ZM2.5 9.375H4H2.5ZM2.5 10H1V11.5H2.5V10ZM0 10.625H-1.5H0ZM1.25 13.75V15.25H2.75V13.75H1.25ZM2.5 13.125H4H2.5ZM2.5 13.75H1V15.25H2.5V13.75ZM0 14.375H-1.5H0ZM2.75 6.25V5.625H-0.25V6.25H2.75ZM2.75 5.625C2.75 5.85706 2.65781 6.07962 2.49372 6.24372L0.372398 4.1224C-0.0261166 4.52091 -0.25 5.06141 -0.25 5.625H2.75ZM2.49372 6.24372C2.32962 6.40781 2.10707 6.5 1.875 6.5V3.5C1.31141 3.5 0.770912 3.72388 0.372398 4.1224L2.49372 6.24372ZM1.875 6.5C1.64293 6.5 1.42038 6.40781 1.25628 6.24372L3.3776 4.1224C2.97909 3.72388 2.43859 3.5 1.875 3.5V6.5ZM1.25628 6.24372C1.09219 6.07962 1 5.85706 1 5.625H4C4 5.06141 3.77612 4.52091 3.3776 4.1224L1.25628 6.24372ZM1 5.625V6.25H4V5.625H1ZM2.5 7.75H3.125V4.75H2.5V7.75ZM3.125 7.75C2.89293 7.75 2.67038 7.65781 2.50628 7.49372L4.6276 5.3724C4.22909 4.97388 3.68859 4.75 3.125 4.75V7.75ZM2.50628 7.49372C2.34219 7.32962 2.25 7.10707 2.25 6.875H5.25C5.25 6.31141 5.02612 5.77091 4.6276 5.3724L2.50628 7.49372ZM2.25 6.875C2.25 6.64293 2.34219 6.42037 2.50628 6.25628L4.6276 8.3776C5.02612 7.97909 5.25 7.43859 5.25 6.875H2.25ZM2.50628 6.25628C2.67038 6.09219 2.89293 6 3.125 6V9C3.68859 9 4.22909 8.77612 4.6276 8.3776L2.50628 6.25628ZM3.125 6H0.625V9H3.125V6ZM0.625 6C0.857065 6 1.07962 6.09219 1.24372 6.25628L-0.877602 8.3776C-0.479088 8.77612 0.0614142 9 0.625 9V6ZM1.24372 6.25628C1.40781 6.42038 1.5 6.64294 1.5 6.875H-1.5C-1.5 7.43859 -1.27612 7.97909 -0.877602 8.3776L1.24372 6.25628ZM1.5 6.875C1.5 7.10706 1.40781 7.32962 1.24372 7.49372L-0.877602 5.3724C-1.27612 5.77091 -1.5 6.31141 -1.5 6.875H1.5ZM1.24372 7.49372C1.07962 7.65781 0.857065 7.75 0.625 7.75V4.75C0.0614142 4.75 -0.479088 4.97388 -0.877602 5.3724L1.24372 7.49372ZM0.625 7.75H1.25V4.75H0.625V7.75ZM2.75 10V9.375H-0.25V10H2.75ZM2.75 9.375C2.75 9.60706 2.65781 9.82962 2.49372 9.99372L0.372398 7.8724C-0.0261166 8.27091 -0.25 8.81141 -0.25 9.375H2.75ZM2.49372 9.99372C2.32962 10.1578 2.10707 10.25 1.875 10.25V7.25C1.31141 7.25 0.770912 7.47388 0.372398 7.8724L2.49372 9.99372ZM1.875 10.25C1.64293 10.25 1.42038 10.1578 1.25628 9.99372L3.3776 7.8724C2.97909 7.47388 2.43859 7.25 1.875 7.25V10.25ZM1.25628 9.99372C1.09219 9.82962 1 9.60706 1 9.375H4C4 8.81141 3.77612 8.27091 3.3776 7.8724L1.25628 9.99372ZM1 9.375V10H4V9.375H1ZM2.5 11.5H3.125V8.5H2.5V11.5ZM3.125 11.5C2.89294 11.5 2.67038 11.4078 2.50628 11.2437L4.6276 9.1224C4.22908 8.72388 3.68858 8.5 3.125 8.5V11.5ZM2.50628 11.2437C2.34219 11.0796 2.25 10.8571 2.25 10.625H5.25C5.25 10.0614 5.02612 9.52091 4.6276 9.1224L2.50628 11.2437ZM2.25 10.625C2.25 10.3929 2.34219 10.1704 2.50628 10.0063L4.6276 12.1276C5.02612 11.7291 5.25 11.1886 5.25 10.625H2.25ZM2.50628 10.0063C2.67038 9.84219 2.89294 9.75 3.125 9.75V12.75C3.68858 12.75 4.22908 12.5261 4.6276 12.1276L2.50628 10.0063ZM3.125 9.75H0.625V12.75H3.125V9.75ZM0.625 9.75C0.857062 9.75 1.07962 9.84219 1.24372 10.0063L-0.877602 12.1276C-0.479085 12.5261 0.0614179 12.75 0.625 12.75V9.75ZM1.24372 10.0063C1.40781 10.1704 1.5 10.3929 1.5 10.625H-1.5C-1.5 11.1886 -1.27612 11.7291 -0.877602 12.1276L1.24372 10.0063ZM1.5 10.625C1.5 10.8571 1.40781 11.0796 1.24372 11.2437L-0.877602 9.1224C-1.27612 9.52091 -1.5 10.0614 -1.5 10.625H1.5ZM1.24372 11.2437C1.07962 11.4078 0.857062 11.5 0.625 11.5V8.5C0.0614179 8.5 -0.479085 8.72388 -0.877602 9.1224L1.24372 11.2437ZM0.625 11.5H1.25V8.5H0.625V11.5ZM2.75 13.75V13.125H-0.25V13.75H2.75ZM2.75 13.125C2.75 13.3571 2.65781 13.5796 2.49372 13.7437L0.372398 11.6224C-0.0261177 12.0209 -0.25 12.5614 -0.25 13.125H2.75ZM2.49372 13.7437C2.32962 13.9078 2.10706 14 1.875 14V11C1.31142 11 0.770915 11.2239 0.372398 11.6224L2.49372 13.7437ZM1.875 14C1.64294 14 1.42038 13.9078 1.25628 13.7437L3.3776 11.6224C2.97908 11.2239 2.43858 11 1.875 11V14ZM1.25628 13.7437C1.09219 13.5796 1 13.3571 1 13.125H4C4 12.5614 3.77612 12.0209 3.3776 11.6224L1.25628 13.7437ZM1 13.125V13.75H4V13.125H1ZM2.5 15.25H3.125V12.25H2.5V15.25ZM3.125 15.25C2.89294 15.25 2.67038 15.1578 2.50628 14.9937L4.6276 12.8724C4.22908 12.4739 3.68858 12.25 3.125 12.25V15.25ZM2.50628 14.9937C2.34219 14.8296 2.25 14.6071 2.25 14.375H5.25C5.25 13.8114 5.02612 13.2709 4.6276 12.8724L2.50628 14.9937ZM2.25 14.375C2.25 14.1429 2.34219 13.9204 2.50628 13.7563L4.6276 15.8776C5.02612 15.4791 5.25 14.9386 5.25 14.375H2.25ZM2.50628 13.7563C2.67038 13.5922 2.89294 13.5 3.125 13.5V16.5C3.68858 16.5 4.22908 16.2761 4.6276 15.8776L2.50628 13.7563ZM3.125 13.5H0.625V16.5H3.125V13.5ZM0.625 13.5C0.857062 13.5 1.07962 13.5922 1.24372 13.7563L-0.877602 15.8776C-0.479085 16.2761 0.0614179 16.5 0.625 16.5V13.5ZM1.24372 13.7563C1.40781 13.9204 1.5 14.1429 1.5 14.375H-1.5C-1.5 14.9386 -1.27612 15.4791 -0.877602 15.8776L1.24372 13.7563ZM1.5 14.375C1.5 14.6071 1.40781 14.8296 1.24372 14.9937L-0.877602 12.8724C-1.27612 13.2709 -1.5 13.8114 -1.5 14.375H1.5ZM1.24372 14.9937C1.07962 15.1578 0.857062 15.25 0.625 15.25V12.25C0.0614179 12.25 -0.479085 12.4739 -0.877602 12.8724L1.24372 14.9937ZM0.625 15.25H1.25V12.25H0.625V15.25Z" fill="#343A40" mask="url(#path-5-inside-3_3479_40799)"/>
</svg>
